<?xml version="1.0" encoding="UTF-8" standalone="no"?>
<svg
   viewBox="0 0 512 512"
   version="1.1"
   id="svg1"
   sodipodi:docname="circle-solid.svg"
   inkscape:version="1.3.1 (91b66b0783, 2023-11-16)"
   inkscape:export-filename="circle-solid.png"
   inkscape:export-xdpi="15"
   inkscape:export-ydpi="15"
   xmlns:inkscape="http://www.inkscape.org/namespaces/inkscape"
   xmlns:sodipodi="http://sodipodi.sourceforge.net/DTD/sodipodi-0.dtd"
   xmlns="http://www.w3.org/2000/svg"
   xmlns:svg="http://www.w3.org/2000/svg">
  <defs
     id="defs1" />
  <sodipodi:namedview
     id="namedview1"
     pagecolor="#ffffff"
     bordercolor="#000000"
     borderopacity="0.25"
     inkscape:showpageshadow="2"
     inkscape:pageopacity="0.0"
     inkscape:pagecheckerboard="0"
     inkscape:deskcolor="#d1d1d1"
     inkscape:zoom="1"
     inkscape:cx="239.5"
     inkscape:cy="246.5"
     inkscape:window-width="1850"
     inkscape:window-height="1057"
     inkscape:window-x="1982"
     inkscape:window-y="-8"
     inkscape:window-maximized="1"
     inkscape:current-layer="svg1" />
  <!--!Font Awesome Free 6.5.2 by @fontawesome - https://fontawesome.com License - https://fontawesome.com/license/free Copyright 2024 Fonticons, Inc.-->
  <path
     d="M256 512A256 256 0 1 0 256 0a256 256 0 1 0 0 512z"
     id="path1" />
  <path
     style="fill:#4d4d4d;stroke-width:0.594657"
     d="M 237.56562,511.028 C 191.3362,507.60012 146.12365,491.33891 108.22764,464.51012 93.024888,453.7472 74.82189,437.24635 62.872464,423.39605 27.942104,382.9091 6.8817415,333.73193 1.3708924,279.7863 0.37946068,270.08118 0.39607993,241.81871 1.3990415,231.91638 6.6115672,180.45262 26.244406,133.19522 59.084592,93.063879 65.687073,84.99552 80.272044,70.083387 88.603949,62.882371 143.78628,15.189908 216.43807,-6.7913512 288.40883,2.4301397 c 43.2851,5.5460461 85.33632,22.5333513 119.99598,48.4744163 36.35267,27.208198 65.04538,63.481884 82.47613,104.267344 35.03123,81.9681 25.11877,175.96594 -26.18976,248.35222 -11.06252,15.60704 -27.20466,33.43137 -41.29513,45.59853 -51.39422,44.37908 -118.90255,66.868 -185.83043,61.90535 z"
     id="path2" />
  <path
     style="fill:#808080;stroke-width:0.03125"
     d="m 37.390625,122.83979 c 0,-0.0358 1.381767,-2.27101 2.301842,-3.72356 8.923249,-14.0874 19.052974,-27.101313 30.501889,-39.186543 l 1.043563,-1.101562 h 0.391115 0.391116 l -1.089863,1.132812 C 65.29663,85.81661 61.505774,90.039181 58.060035,94.296894 51.049011,102.96004 44.279876,112.49599 38.627803,121.67187 c -0.322903,0.52422 -0.621064,1.00586 -0.662581,1.07032 l -0.07548,0.11718 h -0.249556 c -0.137257,0 -0.249557,-0.009 -0.249557,-0.0196 z"
     id="path8" />
  <path
     style="fill:#808080;stroke-width:0.03125"
     d="m 71.360606,78.710937 c 0.0558,-0.06445 0.836068,-0.86996 1.733927,-1.790015 4.688031,-4.803925 10.006773,-9.811401 15.220184,-14.32946 3.912161,-3.390366 8.176043,-6.866919 12.026103,-9.805469 l 0.68178,-0.520368 h 0.32464 c 0.17855,0 0.32463,0.0053 0.32463,0.01174 0,0.0065 -0.20039,0.163996 -0.44531,0.350086 -4.13885,3.144676 -8.218257,6.446583 -12.28906,9.946871 -2.412551,2.074437 -4.741644,4.218632 -8.25,7.595065 C 79.236697,71.565635 74.369848,76.412595 73,77.82547 l -0.96875,0.999179 -0.38605,0.0017 -0.38605,0.0017 z"
     id="path9" />
  <path
     style="fill:#808080;stroke-width:0.03125"
     d="m 101.07924,52.222617 c 0.055,-0.05168 2.17944,-1.643059 3.01451,-2.258099 11.71287,-8.626692 23.72615,-16.004306 36.82031,-22.612141 l 2.03906,-1.028992 v 0.234158 0.234157 l -1.82031,0.920539 C 127.40188,34.65602 114.84252,42.433313 102.75723,51.47603 l -1.05527,0.789595 h -0.33424 c -0.28508,0 -0.32751,-0.0063 -0.28848,-0.04301 z"
     id="path10" />
  <path
     style="fill:#808080;stroke-width:0.03125"
     d="m 142.95964,26.559442 0.009,-0.235327 1.09375,-0.531879 c 13.36439,-6.498965 27.49802,-11.90671 41.64062,-15.9323441 0.48985,-0.1394319 0.91524,-0.2608175 0.94532,-0.2697456 0.0481,-0.014294 0.0547,0.00813 0.0547,0.1876745 v 0.2039076 l -0.21093,0.061685 c -0.11602,0.03393 -0.73125,0.211385 -1.36719,0.394354 -11.62244,3.343947 -23.75715,7.835472 -34.89063,12.914361 -2.40032,1.094986 -5.1635,2.40071 -6.56303,3.101327 -0.2667,0.133512 -0.53799,0.264926 -0.60286,0.292032 l -0.11795,0.04928 z"
     id="path11" />
  <path
     style="fill:#808080;stroke-width:0.03125"
     d="M 186.70312,9.785804 V 9.5805462 l 0.16407,-0.049376 c 0.74496,-0.2242009 4.25044,-1.1610475 6.24218,-1.6682384 11.91758,-3.034761 24.83046,-5.3139513 37.01563,-6.5334474 0.51562,-0.051604 0.99023,-0.099807 1.05469,-0.1071189 l 0.11718,-0.013294 v 0.1779174 0.1779175 l -0.86718,0.086597 c -12.75139,1.2733546 -26.17136,3.6900829 -38.72657,6.9740541 -1.7594,0.4601957 -4.78892,1.2845053 -4.95487,1.3481882 -0.0365,0.014009 -0.0451,-0.021875 -0.0451,-0.1879429 z"
     id="path12" />
  <path
     style="fill:#808080;stroke-width:0.03125"
     d="m 231.29687,1.3882459 v -0.17649 l 0.19532,-0.019856 c 2.37141,-0.24108123 6.52373,-0.56163089 9.55468,-0.73759983 4.77729,-0.2773566 8.50879,-0.39554217 13.5,-0.42757772 5.4961,-0.03527606 10.60857,0.09518979 16.15625,0.4122931 1.87778,0.10733278 4.84335,0.31065809 5.49219,0.37655428 l 0.19531,0.019836 V 1.0055553 1.1757046 l -0.13281,-0.018154 c -0.28925,-0.039538 -3.33738,-0.25199447 -5.16406,-0.35993875 -5.59357,-0.33054113 -10.52179,-0.45942919 -16.35938,-0.42784806 -3.80945,0.020609 -5.64448,0.0604787 -8.95312,0.19452525 -4.49427,0.1820809 -9.4549,0.51749416 -13.74219,0.92917886 l -0.74219,0.071268 z"
     id="path13" />
  <path
     style="fill:#808080;stroke-width:0.03125"
     d="M 317.5,7.9043925 C 316.7445,7.709845 314.69815,7.2135228 313.57812,6.9531784 301.64526,4.1794487 289.78447,2.3039678 277.61277,1.2661742 c -0.60829,-0.051864 -1.13212,-0.094299 -1.16407,-0.094299 -0.0496,0 -0.0581,-0.025194 -0.0581,-0.171875 0,-0.0945312 0.0107,-0.171875 0.0238,-0.171875 0.0589,0 2.66886,0.2278592 3.41366,0.2980317 12.0266,1.1330914 23.76288,3.0686164 35.40625,5.8391317 1.04515,0.2486907 2.59307,0.6246635 2.78884,0.6773788 l 0.11741,0.031617 v 0.1862953 c 0,0.1576731 -0.008,0.185859 -0.0547,0.183455 -0.0301,-0.00156 -0.29375,-0.064401 -0.58594,-0.1396419 z"
     id="path14" />
  <path
     style="fill:#808080;stroke-width:0.03125"
     d="m 356.14062,20.871146 c -2.24614,-0.97413 -6.4375,-2.664314 -9.40857,-3.794053 -8.93305,-3.396749 -18.08882,-6.309975 -27.29433,-8.684636 -0.67019,-0.1728826 -1.2362,-0.314332 -1.25781,-0.314332 -0.0276,0 -0.0393,-0.061255 -0.0393,-0.2052309 0,-0.1807258 0.007,-0.2033185 0.0547,-0.1892152 0.0301,0.00881 0.42031,0.1092304 0.86719,0.2231596 12.52678,3.1936565 24.54481,7.2306565 36.40625,12.2292955 l 1.03125,0.434589 0.009,0.222451 c 0.005,0.122348 -0.002,0.221962 -0.0156,0.221363 -0.0136,-5.98e-4 -0.17247,-0.06512 -0.35294,-0.143391 z"
     id="path15" />
  <path
     style="fill:#808080;stroke-width:0.03125"
     d="m 390.98437,38.981138 c -10.42101,-6.492741 -21.59781,-12.357202 -33.01562,-17.323282 -0.60156,-0.261645 -1.17461,-0.508739 -1.27344,-0.5491 l -0.17969,-0.07338 v -0.230469 c 0,-0.126758 0.0105,-0.224248 0.0234,-0.216645 0.0129,0.0076 0.2625,0.115713 0.55469,0.240246 0.77397,0.32987 1.86294,0.806044 2.98437,1.304974 9.33156,4.151635 18.47246,8.895222 27.23822,14.135025 1.71957,1.027884 4.42215,2.684434 4.50545,2.761615 0.0278,0.02579 0.0376,0.107895 0.0312,0.262004 l -0.009,0.224442 z"
     id="path16" />
  <path
     style="fill:#808080;stroke-width:0.03125"
     d="M 430.625,69.521453 C 421.37464,60.8471 411.35175,52.729944 401.23494,45.719559 c -2.80077,-1.940773 -6.20223,-4.193081 -8.80455,-5.830011 l -0.56961,-0.358298 -7e-4,-0.242402 -7.1e-4,-0.242401 0.25782,0.161138 c 1.45453,0.909115 3.53018,2.250399 5.38281,3.478367 10.63129,7.046701 20.79914,14.948323 30.28125,23.532112 0.87906,0.795779 2.88781,2.648882 3.30666,3.050436 l 0.30666,0.294 -0.01,0.331126 -0.01,0.331125 z"
     id="path17" />
  <path
     style="fill:#808080;stroke-width:0.03125"
     d="m 454.76562,95.460808 c -1.84437,-2.319614 -5.5367,-6.651203 -8.26409,-9.694864 -4.62132,-5.15721 -10.15468,-10.853202 -14.69552,-15.127439 L 431.39327,70.25 l -8.9e-4,-0.265625 c -0.002,-0.469831 -0.038,-0.477844 0.6025,0.132682 7.76945,7.406103 14.21989,14.28489 20.75469,22.132943 0.82485,0.990623 2.53222,3.076249 2.7437,3.351562 0.0236,0.03066 -0.0364,0.03875 -0.27851,0.03758 l -0.30851,-0.0015 z"
     id="path18" />
  <path
     style="fill:#808080;stroke-width:0.03125"
     d="m 476.40988,126.57031 c -0.0246,-0.0387 -0.35071,-0.58359 -0.72474,-1.21094 -4.65239,-7.80336 -10.03983,-15.78244 -15.66663,-23.20312 -1.57833,-2.08152 -2.97799,-3.869769 -5.04422,-6.444648 l -0.0569,-0.07098 0.30695,2.13e-4 0.30696,2.12e-4 0.56558,0.710725 c 6.65611,8.364258 12.42833,16.586148 18.02843,25.679478 0.55502,0.90123 2.11418,3.49562 2.54006,4.22656 l 0.22304,0.38281 h -0.2169 c -0.19085,0 -0.22226,-0.008 -0.26158,-0.0703 z"
     id="path19" />
  <path
     style="fill:#808080;stroke-width:0.03125"
     d="m 492.95125,160.11719 c -2.45512,-6.16632 -5.88453,-13.70306 -9.08273,-19.96094 -2.38148,-4.65981 -5.16872,-9.73953 -7.3525,-13.39989 l -0.0708,-0.11863 0.22718,0.009 0.22719,0.009 0.32794,0.5625 c 4.19548,7.19632 8.19189,14.92396 11.71688,22.65625 1.48771,3.26341 3.22158,7.30071 4.42546,10.30469 l 0.10959,0.27343 h -0.19724 -0.19724 z"
     id="path20" />
  <path
     style="fill:#808080;stroke-width:0.03125"
     d="m 503.94056,193.96094 c -2.65613,-10.67201 -6.12111,-21.49553 -10.19178,-31.83594 -0.26387,-0.67031 -0.52193,-1.3207 -0.57344,-1.44531 l -0.0937,-0.22657 h 0.19719 0.19718 l 0.0689,0.16407 c 0.0379,0.0902 0.26625,0.66328 0.50742,1.27343 4.07966,10.32159 7.43642,20.74143 10.18036,31.60124 0.18995,0.75177 0.34536,1.3881 0.34536,1.41406 0,0.0371 -0.0419,0.0472 -0.19531,0.0472 h -0.19531 z"
     id="path21" />
  <path
     style="fill:#808080;stroke-width:0.03125"
     d="m 509.43887,222.97656 c -1.16288,-8.98122 -2.9035,-18.34436 -5.07792,-27.31519 -0.0868,-0.35813 -0.15783,-0.66399 -0.15783,-0.67969 0,-0.0157 0.0887,-0.0286 0.19719,-0.0286 h 0.19719 l 0.16501,0.67969 c 1.92708,7.93768 3.48546,16.03973 4.64446,24.14653 0.18342,1.28298 0.48365,3.49794 0.48365,3.56817 0,0.0321 -0.0507,0.0431 -0.19907,0.0431 h -0.19907 z"
     id="path22" />
  <path
     style="fill:#808080;stroke-width:0.03125"
     d="m 511.56724,252.52344 c -0.011,-0.11602 -0.0201,-0.48516 -0.0202,-0.82032 -7.3e-4,-1.37578 -0.1289,-5.28732 -0.26676,-8.14062 -0.25262,-5.22885 -0.7116,-10.9254 -1.29796,-16.10938 -0.1758,-1.55425 -0.43985,-3.7348 -0.48153,-3.97656 l -0.0148,-0.0859 h 0.20175 c 0.18376,0 0.20313,0.006 0.21733,0.0703 0.0188,0.0849 0.26113,2.06743 0.39054,3.19531 0.82733,7.2107 1.33424,14.14139 1.56337,21.375 0.0498,1.57255 0.0935,3.49734 0.0939,4.13281 l 3.1e-4,0.57031 h -0.18298 -0.18298 z"
     id="path23" />
  <path
     style="fill:#808080;stroke-width:0.03125"
     d="m 510.26588,282.13281 c 1.4e-4,-0.0559 0.0145,-0.22598 0.0319,-0.37806 0.15681,-1.3687 0.5177,-5.62282 0.6857,-8.08288 0.42089,-6.16319 0.59413,-11.34744 0.59445,-17.78906 l 1.6e-4,-3.14844 h 0.18415 0.18414 l 0.0235,0.55469 c 0.0292,0.68834 -0.005,6.73969 -0.047,8.41406 -0.17613,6.96167 -0.56146,13.29571 -1.18996,19.56061 -0.0508,0.50599 -0.0923,0.93138 -0.0923,0.94531 0,0.0139 -0.0844,0.0253 -0.1875,0.0253 h -0.1875 z"
     id="path24" />
  <path
     style="fill:#808080;stroke-width:0.03125"
     d="m 505.72354,310.57166 c 1.92852,-8.84147 3.4015,-17.90721 4.38469,-26.9865 0.0694,-0.64066 0.12614,-1.20668 0.12614,-1.25781 v -0.093 h 0.20253 0.20253 l -0.0161,0.13282 c -0.009,0.073 -0.0652,0.58984 -0.12504,1.14843 -0.95821,8.93697 -2.4396,18.04766 -4.39779,27.04688 l -0.1632,0.75 -0.18965,0.009 -0.18965,0.009 z"
     id="path25" />
  <path
     style="fill:#808080;stroke-width:0.03125"
     d="m 496.68011,342.13418 c 0.88547,-2.48048 2.11056,-6.10191 2.83098,-8.36856 2.31038,-7.26908 4.19977,-14.23196 5.85063,-21.56097 0.1024,-0.45463 0.20353,-0.83762 0.22473,-0.85108 0.0551,-0.035 0.33542,-0.0313 0.33542,0.004 0,0.0378 -0.49739,2.22542 -0.74634,3.28257 -2.18692,9.28687 -4.98899,18.76381 -8.16795,27.625 l -0.19619,0.54688 -0.18999,0.009 -0.18999,0.009 z"
     id="path26" />
  <path
     style="fill:#808080;stroke-width:0.03125"
     d="m 480.79687,377.67955 c 0,-0.0145 0.0121,-0.0398 0.027,-0.0561 0.0149,-0.0163 0.26357,-0.47266 0.55271,-1.01407 3.65026,-6.83494 6.87524,-13.5583 9.83318,-20.5 1.76136,-4.13355 3.6915,-9.03249 5.07264,-12.875 0.0649,-0.18046 0.13154,-0.3457 0.14816,-0.36718 0.0276,-0.0358 0.36631,-0.0589 0.36631,-0.025 0,0.0255 -0.89672,2.4626 -1.26594,3.44059 -4.0306,10.67629 -8.70793,20.95756 -14.08814,30.96723 l -0.23515,0.4375 -0.20538,0.009 c -0.11296,0.005 -0.20539,-0.003 -0.20539,-0.0172 z"
     id="path27" />
  <path
     style="fill:#808080;stroke-width:0.03125"
     d="m 459.70312,410.31162 c 0,-0.009 0.23402,-0.32196 0.52004,-0.69531 4.53792,-5.92341 9.49909,-13.18462 13.78535,-20.17636 2.21542,-3.61379 4.82518,-8.12472 6.5413,-11.30655 l 0.23144,-0.4291 0.21225,-5.9e-4 0.21226,-5.9e-4 -0.0762,0.13282 c -0.0419,0.073 -0.2484,0.44922 -0.45891,0.83593 -5.66748,10.41112 -12.33895,20.80701 -19.53802,30.44532 l -0.90448,1.21093 h -0.26253 c -0.1444,0 -0.26254,-0.007 -0.26254,-0.0165 z"
     id="path28" />
  <path
     style="fill:#808080;stroke-width:0.03125"
     d="m 435.75299,437.57021 c 8.38345,-8.43877 16.24507,-17.35696 23.29148,-26.42177 l 0.63766,-0.82032 h 0.2605 c 0.14327,0 0.26049,0.008 0.26049,0.0182 0,0.0612 -2.81614,3.6873 -4.39351,5.6571 -5.9988,7.49122 -12.12757,14.3245 -19.03496,21.22309 l -2.01038,2.00781 h -0.33227 -0.33227 z"
     id="path29" />
  <path
     style="fill:#808080;stroke-width:0.03125"
     d="m 378.06336,480.47373 c 0.0339,-0.023 0.32883,-0.18712 0.65539,-0.36463 1.79152,-0.97382 4.37797,-2.43652 6.44188,-3.64304 13.91206,-8.13267 27.04776,-17.56563 39.13624,-28.10439 2.61715,-2.28163 5.77422,-5.20917 8.79688,-8.1573 l 0.96875,-0.94486 0.01,0.30774 0.01,0.30775 -0.43347,0.42187 c -0.23842,0.23204 -0.83346,0.80208 -1.32232,1.26676 -15.85967,15.07546 -33.70228,28.13044 -52.84593,38.66603 l -0.5196,0.28596 h -0.47954 c -0.41073,0 -0.4707,-0.006 -0.4179,-0.0419 z"
     id="path30" />
  <path
     style="fill:#808080;stroke-width:0.03125"
     d="m 434.09779,439.7577 c -0.0103,-0.0386 -0.019,-0.17215 -0.0192,-0.29676 l -4.3e-4,-0.22657 h 0.33487 0.33487 l -0.1708,0.17435 c -0.094,0.0959 -0.23598,0.22943 -0.31563,0.29676 -0.14087,0.11907 -0.14534,0.12049 -0.16364,0.0522 z"
     id="path31" />
  <path
     style="fill:#808080;stroke-width:0.0883883"
     d="m 252.12776,511.93554 c -10.33213,-0.19475 -20.29788,-0.93907 -30.09623,-2.24784 -3.25463,-0.43472 -3.22618,-0.42959 -3.22618,-0.58066 0,-0.0675 0.0176,-0.12274 0.0391,-0.12274 0.0215,0 1.00592,0.13721 2.18761,0.30492 6.8214,0.96808 13.95349,1.66713 21.19622,2.07753 4.68557,0.26551 6.71597,0.31226 13.56761,0.31243 7.12712,1.7e-4 9.32654,-0.054 14.53988,-0.3583 31.48149,-1.83739 62.26601,-9.4716 91.30516,-22.64262 4.25891,-1.93167 10.3521,-4.93166 14.31892,-7.04992 1.87062,-0.99891 2.116,-1.10678 2.4681,-1.08504 0.386,0.0238 0.36294,0.0391 -1.81196,1.19973 -2.81569,1.50257 -8.73381,4.47363 -11.52791,5.78732 -30.4157,14.30042 -62.81144,22.40895 -96.29911,24.10329 -4.53746,0.22958 -12.67514,0.37703 -16.6612,0.3019 z"
     id="path32" />
  <path
     style="fill:#808080;stroke-width:0.0078125"
     d="m 369.83215,485.25546 1.1e-4,-0.0367 0.89247,-0.44726 c 2.94512,-1.47596 5.56911,-2.8336 7.14197,-3.69522 0.57592,-0.3155 0.75439,-0.43073 0.75439,-0.4871 0,-0.025 -0.0424,-0.0371 -0.16409,-0.047 -0.3681,-0.03 -0.57267,0.0576 -2.38278,1.02033 -1.77157,0.9422 -3.24696,1.70193 -5.29688,2.72753 -0.70566,0.35305 -0.94206,0.468 -0.94405,0.45902 -10e-4,-0.007 -10e-4,-0.0129 0,-0.0139 0.001,-0.001 0.32081,-0.16119 0.70968,-0.3558 2.36307,-1.18261 4.69117,-2.39537 7.13544,-3.71699 0.2657,-0.14366 0.48462,-0.25968 0.48649,-0.25782 0.002,0.002 -0.0248,0.0198 -0.0593,0.0398 -0.12015,0.0698 -0.11603,0.0705 0.42112,0.0752 l 0.44861,0.004 -0.19471,0.10649 c -1.86824,1.02179 -3.93407,2.11626 -5.87048,3.11018 -0.9479,0.48654 -2.50826,1.27533 -2.87696,1.45437 l -0.20117,0.0977 z"
     id="path33" />
  <path
     style="fill:#808080;stroke-width:0.0625"
     d="m 217.25,509.02473 c -6.64952,-1.06186 -10.93829,-1.86616 -16.48617,-3.09174 -21.04838,-4.6498 -41.4986,-11.97201 -60.63883,-21.71175 -1.40938,-0.71718 -2.92813,-1.49843 -3.375,-1.73611 -0.80213,-0.42663 -0.81275,-0.43511 -0.83205,-0.66425 l -0.0195,-0.2321 0.89454,0.47226 c 16.19662,8.55071 34.02511,15.59376 51.95705,20.52536 9.13323,2.51181 19.05167,4.65656 27.90625,6.03443 2.25401,0.35074 2.125,0.32196 2.125,0.47411 0,0.16188 -0.10927,0.15687 -1.53125,-0.0702 z"
     id="path34" />
  <path
     style="fill:#808080;stroke-width:0.0220971"
     d="m 117.37973,471.20681 c -10.44818,-6.75747 -19.832398,-13.7926 -29.057674,-21.78384 -1.797361,-1.55693 -4.521489,-3.9919 -5.756291,-5.14527 l -0.121534,-0.11352 0.415331,-8.4e-4 0.41533,-8.5e-4 0.501699,0.45912 c 3.093689,2.83107 6.951325,6.18919 10.390145,9.04473 7.994484,6.6385 15.041494,11.79596 23.797974,17.41691 l 0.19946,0.12803 v 0.24209 c 0,0.13315 -0.007,0.24148 -0.0166,0.24072 -0.009,-7.5e-4 -0.35466,-0.22003 -0.76787,-0.48728 z"
     id="path35" />
  <path
     style="fill:#808080;stroke-width:0.0220971"
     d="m 135.86394,482.04511 c -5.95936,-3.17775 -11.55488,-6.43422 -17.04238,-9.91829 l -0.65739,-0.41738 v -0.24973 -0.24973 l 0.28174,0.17984 c 5.1931,3.31485 10.88629,6.65071 16.43354,9.62903 0.54625,0.29329 0.99518,0.53544 0.99762,0.53811 0.002,0.003 0.0144,0.0993 0.0266,0.21476 l 0.0222,0.20991 0.10375,0.0939 c 0.0571,0.0517 0.0953,0.0938 0.085,0.0936 -0.0103,-1.8e-4 -0.12312,-0.056 -0.25073,-0.12405 z"
     id="path36" />
  <path
     style="fill:#808080;stroke-width:0.0441942"
     d="M 81.582445,443.34845 C 67.200437,429.98022 54.152142,414.64991 43.202139,398.2558 c -1.236935,-1.85192 -2.212043,-3.3415 -2.212043,-3.37914 0,-0.0131 0.09877,-0.0238 0.2195,-0.0238 h 0.2195 l 0.58497,0.89493 c 7.522398,11.50835 16.667006,23.31877 25.159372,32.49376 4.336979,4.68559 9.918286,10.24042 14.939337,14.86846 0.510443,0.47049 0.9673,0.89232 1.015238,0.93739 0.08529,0.0802 0.07866,0.082 -0.309359,0.0818 l -0.39652,-2e-4 z"
     id="path37" />
  <path
     style="fill:#808080;stroke-width:0.0441942"
     d="m 40.050729,393.42758 c -7.954117,-12.51141 -14.72376,-25.49833 -20.393446,-39.12289 -0.303449,-0.7292 -0.589315,-1.42029 -0.635258,-1.53575 l -0.08353,-0.20992 h 0.211099 0.211098 l 0.303281,0.74025 c 3.638155,8.88005 8.20216,18.35334 12.944759,26.86881 2.691864,4.83332 5.69741,9.84539 8.574007,14.29807 l 0.249822,0.3867 H 41.1947 40.956839 Z"
     id="path38" />
  <path
     style="fill:#808080;stroke-width:0.0441942"
     d="m 18.896462,352.45958 c -0.0212,-0.0547 -0.246699,-0.6165 -0.501099,-1.24848 -4.336986,-10.7739 -8.125203,-22.54387 -10.9454369,-34.00742 -0.3490892,-1.41896 -1.0196738,-4.25364 -1.0196738,-4.31035 0,-0.0114 0.085203,-0.0207 0.1893394,-0.0207 h 0.1893395 l 0.2343511,1.00542 c 2.9236156,12.54295 6.9844587,25.41425 11.8062257,37.42116 0.266993,0.66486 0.485443,1.2203 0.485443,1.23431 0,0.014 -0.08999,0.0255 -0.199968,0.0255 -0.166487,0 -0.206422,-0.0166 -0.238521,-0.0994 z"
     id="path39" />
  <path
     style="fill:#808080;stroke-width:0.0441942"
     d="m 6.4088384,312.81741 c -0.032705,-0.0969 -0.716582,-3.23512 -0.9895663,-4.54095 -2.1161123,-10.12249 -3.6849065,-20.91199 -4.51093712,-31.02431 -0.0486451,-0.59552 -0.0998937,-1.19711 -0.11388581,-1.33687 l -0.0254402,-0.25412 H 0.9000154 c 0.1500341,0 0.1366546,-0.0804 0.2280278,1.37002 0.071598,1.1365 0.164497,2.19385 0.333931,3.8007 1.0729563,10.1755 2.7505207,20.42799 4.9652251,30.34514 0.1961333,0.87826 0.3566064,1.61907 0.3566064,1.64624 0,0.0691 -0.3515457,0.0636 -0.3749673,-0.006 z"
     id="path40" />
  <path
     style="fill:#808080;stroke-width:0.0441942"
     d="m 0.77329365,275.62801 c -5.74e-5,-0.0182 -0.0491569,-0.71926 -0.10910984,-1.55784 -0.60500282,-8.46239 -0.78860352,-17.76362 -0.5155691,-26.11876 l 0.028162,-0.86178 0.25272616,-0.0132 0.25272619,-0.0132 -0.0211163,3.50455 c -0.0116139,1.92751 -0.0296413,3.8327 -0.0400607,4.23376 -0.0260416,1.00238 0.0511704,9.88785 0.10618534,12.21969 0.0742674,3.14787 0.20986023,6.93046 0.2942668,8.20907 l 0.028445,0.43089 H 0.9116737 c -0.0760516,0 -0.13832264,-0.0149 -0.13838005,-0.0331 z"
     id="path41" />
  <path
     style="fill:#808080;stroke-width:0.0441942"
     d="m 0.19887378,246.69886 c 0,-0.47282 0.10776336,-2.86654 0.22215308,-4.93463 0.32090674,-5.80178 0.85068024,-11.68436 1.56898674,-17.42196 0.1086789,-0.86809 0.197598,-1.59895 0.197598,-1.62414 0,-0.0252 0.059662,-0.0458 0.1325825,-0.0458 0.1647839,0 0.1640842,-0.0344 0.020671,1.01647 -0.3512048,2.57349 -0.8701039,7.12464 -1.058147,9.28078 -0.2364333,2.71098 -0.43837084,7.22436 -0.55044178,12.30258 -0.0301519,1.36625 -0.0501858,1.72585 -0.0978344,1.75604 -0.032955,0.0209 -0.14443955,0.0383 -0.24774343,0.0386 l -0.18782524,6.8e-4 z"
     id="path42" />
  <path
     style="fill:#808080;stroke-width:0.0441942"
     d="m 2.2618402,222.21935 c 1.0890502,-8.17666 2.6365872,-16.62105 4.5051368,-24.58301 0.3887995,-1.65668 1.0829499,-4.49354 1.1876605,-4.85373 0.072644,-0.24989 0.073432,-0.25069 0.2465177,-0.25069 0.095502,0 0.1736407,0.006 0.1736407,0.0126 0,0.007 -0.1870708,0.75768 -0.4157134,1.66833 -2.2203,8.84314 -4.1616717,18.81036 -5.3344729,27.38779 l -0.146536,1.0717 H 2.33979 2.2015064 Z"
     id="path43" />
  <path
     style="fill:#808080;stroke-width:0.0441942"
     d="m 8.0363515,192.4573 c 0.012539,-0.044 0.2044849,-0.77612 0.4265473,-1.62686 3.9539522,-15.14788 9.7231652,-30.88164 16.5299172,-45.08026 0.442216,-0.92245 0.896346,-1.87101 1.009179,-2.10791 l 0.20515,-0.43074 0.230195,-1.6e-4 0.230195,-1.5e-4 -0.280857,0.58557 c -0.154472,0.32207 -0.573437,1.19214 -0.931035,1.9335 -6.906678,14.31864 -12.705302,30.11452 -16.8076156,45.78516 l -0.2603092,0.99437 -0.1870821,0.0138 c -0.1627809,0.012 -0.1841208,0.003 -0.1642846,-0.0663 z"
     id="path44" />
  <path
     style="fill:#808080;stroke-width:0.0441942"
     d="m 26.229242,143.18235 c 0,-0.0491 2.379962,-4.73769 3.092357,-6.09202 2.391533,-4.54655 5.052959,-9.26845 7.547538,-13.39084 l 0.481378,-0.79549 0.25536,-0.0134 c 0.140447,-0.007 0.24838,0.003 0.239849,0.0241 -0.0085,0.0206 -0.445204,0.75251 -0.970384,1.62648 -3.310697,5.5094 -6.112636,10.58436 -9.130635,16.5377 l -1.080988,2.13237 H 26.44648 c -0.119481,0 -0.217238,-0.013 -0.217238,-0.0289 z"
     id="path45" />
</svg>
