<?xml version="1.0" encoding="UTF-8" standalone="no"?>
<svg
   viewBox="0 0 512 512"
   version="1.1"
   id="svg1"
   sodipodi:docname="circle-regular.svg"
   inkscape:export-filename="circle-regular.png"
   inkscape:export-xdpi="15"
   inkscape:export-ydpi="15"
   inkscape:version="1.3.1 (91b66b0783, 2023-11-16)"
   xmlns:inkscape="http://www.inkscape.org/namespaces/inkscape"
   xmlns:sodipodi="http://sodipodi.sourceforge.net/DTD/sodipodi-0.dtd"
   xmlns="http://www.w3.org/2000/svg"
   xmlns:svg="http://www.w3.org/2000/svg">
  <defs
     id="defs1" />
  <sodipodi:namedview
     id="namedview1"
     pagecolor="#ffffff"
     bordercolor="#000000"
     borderopacity="0.25"
     inkscape:showpageshadow="2"
     inkscape:pageopacity="0.0"
     inkscape:pagecheckerboard="0"
     inkscape:deskcolor="#d1d1d1"
     inkscape:zoom="1.6816406"
     inkscape:cx="256"
     inkscape:cy="256"
     inkscape:window-width="1850"
     inkscape:window-height="1057"
     inkscape:window-x="1982"
     inkscape:window-y="-8"
     inkscape:window-maximized="1"
     inkscape:current-layer="svg1" />
  <!--!Font Awesome Free 6.5.2 by @fontawesome - https://fontawesome.com License - https://fontawesome.com/license/free Copyright 2024 Fonticons, Inc.-->
  <path
     d="M464 256A208 208 0 1 0 48 256a208 208 0 1 0 416 0zM0 256a256 256 0 1 1 512 0A256 256 0 1 1 0 256z"
     id="path1" />
  <path
     style="fill:#4d4d4d;stroke-width:0.594657"
     d="m 242.02555,511.35586 c -1.30824,-0.12733 -5.72358,-0.51671 -9.81185,-0.86529 -19.85043,-1.69251 -43.17943,-6.89682 -62.80127,-14.00992 -27.07496,-9.81493 -51.0495,-23.3541 -74.564579,-42.10894 C 86.027816,447.33714 66.231791,427.73448 59.062738,418.93612 13.614191,363.15856 -6.5435312,293.62777 2.4301397,223.59117 8.7950855,173.91483 29.891083,126.80447 62.877352,88.603949 70.654924,79.596953 85.92004,64.822923 94.847851,57.661962 135.17834,25.313036 180.54463,6.7255862 232.2137,1.3805021 c 9.68478,-1.00187423 37.90318,-0.99094562 47.86992,0.018539 53.37169,5.4057703 103.12551,26.7509559 143.31243,61.4833299 8.33191,7.201016 22.91688,22.113149 29.51936,30.181508 27.12965,33.152971 45.40938,71.439121 53.66073,112.390241 3.63923,18.0614 4.78021,30.12608 4.78021,50.54588 0,20.82475 -1.12942,32.44393 -4.99995,51.43786 -6.92781,33.99705 -21.56679,67.77189 -41.62523,96.03717 -11.13965,15.6974 -27.23558,33.47262 -41.33512,45.64762 -39.68065,34.26437 -88.14538,55.35005 -140.54554,61.14753 -7.64755,0.84612 -35.63845,1.59049 -40.82496,1.08568 z m 34.24596,-48.10667 c 34.91027,-3.35573 67.40379,-15.07123 96.53998,-34.80735 44.97443,-30.46456 76.41817,-77.42728 87.11935,-130.11693 3.37114,-16.59853 3.85362,-21.8977 3.85362,-42.32491 0,-20.42721 -0.48248,-25.72638 -3.85362,-42.32491 C 443.5126,132.83626 379.2347,68.558257 298.31663,52.060631 281.78667,48.690492 276.44719,48.204666 256,48.210342 c -19.94934,0.0055 -25.07944,0.451346 -41.15998,3.576826 -48.52664,9.431834 -94.23052,38.007957 -124.527525,77.860212 -22.175535,29.16939 -35.781089,62.3606 -41.068375,100.1877 -1.482783,10.60835 -1.482783,41.72149 0,52.32984 8.62303,61.69219 40.740344,113.40576 91.5342,147.38345 29.19272,19.52797 62.55454,30.99141 99.46326,34.17652 6.80316,0.58709 27.86668,0.30899 36.02993,-0.4757 z"
     id="path2" />
</svg>
