<?xml version="1.0" encoding="UTF-8" standalone="no"?>
<svg
   viewBox="0 0 512 512"
   version="1.1"
   id="svg1"
   sodipodi:docname="circle-check-solid.svg"
   inkscape:version="1.3.1 (91b66b0783, 2023-11-16)"
   inkscape:export-filename="circle-check-solid.png"
   inkscape:export-xdpi="15"
   inkscape:export-ydpi="15"
   xmlns:inkscape="http://www.inkscape.org/namespaces/inkscape"
   xmlns:sodipodi="http://sodipodi.sourceforge.net/DTD/sodipodi-0.dtd"
   xmlns="http://www.w3.org/2000/svg"
   xmlns:svg="http://www.w3.org/2000/svg">
  <defs
     id="defs1" />
  <sodipodi:namedview
     id="namedview1"
     pagecolor="#ffffff"
     bordercolor="#000000"
     borderopacity="0.25"
     inkscape:showpageshadow="2"
     inkscape:pageopacity="0.0"
     inkscape:pagecheckerboard="0"
     inkscape:deskcolor="#d1d1d1"
     inkscape:zoom="1"
     inkscape:cx="207.5"
     inkscape:cy="273.5"
     inkscape:window-width="1850"
     inkscape:window-height="1057"
     inkscape:window-x="1982"
     inkscape:window-y="-8"
     inkscape:window-maximized="1"
     inkscape:current-layer="svg1" />
  <!--!Font Awesome Free 6.5.2 by @fontawesome - https://fontawesome.com License - https://fontawesome.com/license/free Copyright 2024 Fonticons, Inc.-->
  <path
     d="M256 512A256 256 0 1 0 256 0a256 256 0 1 0 0 512zM369 209L241 337c-9.4 9.4-24.6 9.4-33.9 0l-64-64c-9.4-9.4-9.4-24.6 0-33.9s24.6-9.4 33.9 0l47 47L335 175c9.4-9.4 24.6-9.4 33.9 0s9.4 24.6 0 33.9z"
     id="path1"
     style="fill:#81b622;fill-opacity:1" />
  <path
     style="fill:#59981a;stroke-width:0.594657;fill-opacity:1"
     d="M 237.56562,511.028 C 191.3362,507.60012 146.12365,491.33891 108.22764,464.51012 93.024888,453.7472 74.82189,437.24635 62.872464,423.39605 27.942104,382.9091 6.8817415,333.73193 1.3708924,279.7863 0.37946068,270.08118 0.39607993,241.81871 1.3990415,231.91638 6.6115672,180.45262 26.244406,133.19522 59.084592,93.063879 65.687073,84.99552 80.272044,70.083387 88.603949,62.882371 143.78628,15.189908 216.43807,-6.7913512 288.40883,2.4301397 c 43.2851,5.5460461 85.33632,22.5333513 119.99598,48.4744163 36.35267,27.208198 65.04538,63.481884 82.47613,104.267344 35.0085,81.91491 25.08956,176.09941 -26.14977,248.30313 -11.13965,15.6974 -27.23558,33.47262 -41.33512,45.64762 -51.39422,44.37908 -118.90255,66.868 -185.83043,61.90535 z m -7.20464,-167.67764 c 1.43397,-0.32326 3.70854,-1.1354 5.05459,-1.80475 2.66835,-1.32687 133.48184,-131.46655 136.54682,-135.84347 2.92989,-4.184 4.32389,-9.34016 4.00592,-14.81712 -0.378,-6.51078 -2.11583,-10.76658 -6.19615,-15.1738 -7.51433,-8.11637 -18.99195,-10.21533 -28.90173,-5.28535 -3.27511,1.62932 -10.19944,8.33295 -60.33636,58.41338 l -56.63666,56.57284 -24.8314,-24.78199 c -26.97081,-26.91714 -27.18579,-27.0913 -35.18151,-28.49972 -10.2553,-1.80643 -21.27085,4.04164 -25.86182,13.72984 -1.70051,3.58856 -1.84614,4.38841 -1.84614,10.13978 0,5.82255 0.13218,6.5248 1.95875,10.4065 1.84676,3.92464 3.95447,6.15528 36.86875,39.01907 37.8861,37.82797 37.43855,37.44552 45.03502,38.48446 3.77305,0.51602 6.11318,0.38914 10.32192,-0.55967 z"
     id="path2" />
  <path
     style="fill:#81b622;fill-opacity:1;stroke-width:0.0525608"
     d="m 202.20076,264.24876 c -14.08131,-14.08133 -21.79003,-21.82622 -21.77808,-21.88024 0.0123,-0.0557 0.69502,0.56984 2.04208,1.87099 3.17625,3.06799 5.16246,5.03993 23.85378,23.68243 l 17.57276,17.52686 6.26355,-6.2503 c 3.44495,-3.43766 15.11086,-15.09169 25.92424,-25.89785 l 19.66068,-19.64754 0.29531,0.0161 0.29531,0.0161 -26.16653,26.18007 -26.16654,26.18007 z"
     id="path3" />
  <path
     style="fill:#81b622;fill-opacity:1;stroke-width:0.0371661"
     d="m 276.02323,233.65425 c -0.12776,-0.007 -0.23043,-0.0249 -0.22816,-0.0393 0.006,-0.0375 29.80905,-29.76164 35.67531,-35.58083 6.80385,-6.74925 13.96026,-13.80376 14.17252,-13.97073 0.0623,-0.049 0.13912,-0.0732 0.20913,-0.0658 0.10283,0.0108 -1.64471,1.76888 -24.69971,24.84791 -13.6457,13.65993 -24.82982,24.83301 -24.85359,24.82907 -0.0238,-0.004 -0.14774,-0.0131 -0.2755,-0.0204 z"
     id="path4" />
  <path
     style="fill:#81b622;fill-opacity:1;stroke-width:0.0065701"
     d="m 338.1139,172.3544 c 0.0208,-0.0191 0.26945,-0.22041 0.45638,-0.3695 0.69165,-0.55166 1.27249,-0.96548 1.79101,-1.276 0.39836,-0.23857 1.13055,-0.59274 1.92485,-0.93108 1.10919,-0.47247 2.35536,-0.89845 3.4784,-1.18901 0.065,-0.0168 0.1567,-0.0405 0.20367,-0.0527 0.73238,-0.18939 1.70582,-0.38237 2.49993,-0.49558 0.0777,-0.0111 0.15086,-0.0217 0.16261,-0.0237 l 0.0214,-0.004 v 0.082 c 0,0.0924 0.005,0.0851 -0.0591,0.0929 -0.0199,0.002 -0.0938,0.013 -0.16425,0.0236 -2.94361,0.44175 -5.7415,1.41041 -8.32432,2.88196 -0.61414,0.3499 -1.2999,0.7842 -1.86082,1.17848 -0.11616,0.0816 -0.1578,0.10806 -0.12968,0.0823 z"
     id="path5" />
  <path
     style="fill:#81b622;fill-opacity:1;stroke-width:0.0131402"
     d="m 323.2291,186.73327 c 2.10373,-2.13021 2.62713,-2.67223 2.62782,-2.72125 4.1e-4,-0.0297 -0.10641,-0.019 -0.1692,0.0169 -0.0317,0.0181 -0.0595,0.0312 -0.0618,0.029 -0.009,-0.009 3.18963,-3.11165 4.74483,-4.60245 1.38349,-1.32619 2.86358,-2.72903 2.88914,-2.73835 0.008,-0.003 -2.32579,2.33861 -5.18657,5.20352 -2.86078,2.86491 -5.21124,5.21108 -5.22323,5.21371 -0.012,0.003 0.15854,-0.17784 0.37896,-0.40104 z"
     id="path6" />
  <path
     style="fill:#81b622;fill-opacity:1;stroke-width:0.00390625"
     d="m 327.1732,182.54785 c 0.56258,-0.55033 2.58636,-2.50403 3.48305,-3.36244 0.622,-0.59545 1.09574,-1.04658 1.85352,-1.76506 l 0.0801,-0.0759 10e-4,0.0209 10e-4,0.0209 -0.16332,0.1643 c -0.31954,0.32149 -1.35734,1.36197 -3.19414,3.2024 l -1.86254,1.86621 h -0.13597 -0.13597 z"
     id="path7" />
  <path
     style="fill:#81b622;fill-opacity:1;stroke-width:0.00390625"
     d="m 327.10176,182.61592 c 0.002,-0.002 0.0688,-0.0664 0.14831,-0.14355 0.0795,-0.0772 0.20082,-0.19478 0.26953,-0.26131 0.0687,-0.0665 0.15481,-0.15014 0.19134,-0.1858 0.34258,-0.33446 2.15463,-2.08274 2.67578,-2.58162 0.0795,-0.0761 0.16474,-0.1579 0.18945,-0.1818 0.19619,-0.18973 1.27638,-1.21901 1.82031,-1.73451 l 0.19336,-0.18325 0.001,0.0211 10e-4,0.0211 -0.15746,0.15845 c -0.55008,0.55353 -2.61143,2.6199 -4.02267,4.03248 l -1.04102,1.04199 h -0.13653 c -0.0751,0 -0.13486,-0.001 -0.13282,-0.003 z"
     id="path8" />
  <path
     style="fill:#81b622;fill-opacity:1;stroke-width:0.00390625"
     d="m 327.10945,182.60799 c 0.006,-0.006 0.10481,-0.10137 0.21867,-0.21163 0.20101,-0.19465 0.27653,-0.26794 0.39844,-0.3867 0.0625,-0.0608 0.48152,-0.46625 0.95899,-0.92774 0.16006,-0.1547 0.46416,-0.44809 0.67578,-0.65196 0.21162,-0.20387 0.40764,-0.3928 0.43561,-0.41985 0.11403,-0.11028 0.15694,-0.1516 0.34954,-0.33657 0.23593,-0.22659 0.69549,-0.66654 0.88479,-0.84704 0.073,-0.0696 0.15125,-0.14448 0.17381,-0.1663 0.0705,-0.0682 0.81941,-0.78049 1.19531,-1.13685 l 0.18945,-0.1796 0.001,0.0212 10e-4,0.0212 -0.13802,0.13897 c -0.38592,0.38857 -2.90595,2.91516 -3.92269,3.93292 l -1.15999,1.16113 h -0.13687 -0.13687 z"
     id="path9" />
  <path
     style="fill:#81b622;fill-opacity:1;stroke-width:0.00390625"
     d="m 327.11529,182.60219 c 0.01,-0.009 0.0799,-0.0774 0.15619,-0.15141 0.0763,-0.0739 0.22569,-0.21877 0.33204,-0.32181 0.10634,-0.10305 0.24873,-0.24107 0.3164,-0.30672 0.0677,-0.0657 0.2294,-0.22205 0.35938,-0.34754 0.12998,-0.1255 0.26181,-0.25292 0.29297,-0.28316 0.0312,-0.0302 0.0839,-0.0813 0.11714,-0.1135 0.0333,-0.0322 0.0869,-0.0842 0.11914,-0.11557 0.0507,-0.0494 0.626,-0.6038 0.94145,-0.90736 0.058,-0.0558 0.12744,-0.12282 0.1543,-0.14888 0.0269,-0.0261 0.16132,-0.15521 0.29882,-0.287 0.1375,-0.13179 0.26934,-0.25832 0.29297,-0.28119 0.15932,-0.15413 1.12433,-1.07461 1.60352,-1.52953 0.43616,-0.41407 0.48776,-0.46282 0.48993,-0.46282 10e-4,0 0.002,0.01 0.002,0.0212 v 0.0212 l -0.66874,0.67117 c -0.88009,0.8833 -1.98519,1.99064 -3.3996,3.40653 l -1.15212,1.15332 h -0.13679 -0.13679 z"
     id="path10" />
  <path
     style="fill:#81b622;fill-opacity:1;stroke-width:0.0110485"
     d="m 223.07562,344.18954 c -1.1474,-0.049 -2.2017,-0.16021 -4.09349,-0.43164 -0.8367,-0.12006 -1.55336,-0.25274 -2.08364,-0.38578 -0.50932,-0.12777 -1.14957,-0.3385 -1.58448,-0.52149 l -0.0884,-0.0372 -0.003,-0.21229 c -0.002,-0.11677 7e-5,-0.2123 0.004,-0.2123 0.004,0 0.12194,0.0442 0.26264,0.0983 3.20335,1.23051 6.728,1.7516 10.20503,1.50874 3.74871,-0.26184 7.38376,-1.40044 10.60313,-3.32119 0.11051,-0.0659 0.20373,-0.11988 0.20716,-0.11988 0.003,0 0.006,0.014 0.006,0.0312 0,0.0335 -0.0394,0.0713 -0.45852,0.43959 -0.44818,0.39389 -0.56062,0.47768 -0.78474,0.58485 -1.29582,0.61963 -3.22411,1.31504 -4.60723,1.66153 -0.43573,0.10915 -1.32181,0.29954 -1.97741,0.42488 -1.43059,0.2735 -2.4607,0.40691 -3.72888,0.4829 -0.24772,0.0148 -1.59585,0.0219 -1.87825,0.01 z"
     id="path12" />
  <path
     style="fill:#81b622;fill-opacity:1;stroke-width:0.00552427"
     d="m 215.07923,342.75418 c -0.97393,-0.43084 -1.93395,-0.99733 -3.07978,-1.81735 -0.33079,-0.23673 -0.94026,-0.69211 -0.9343,-0.69808 0.001,-10e-4 0.0477,0.0274 0.10357,0.0634 1.06372,0.68609 2.25713,1.31855 3.46328,1.83542 0.1517,0.065 0.55967,0.23273 0.58286,0.23962 0.0106,0.003 0.011,0.006 0.007,0.0406 -0.002,0.0205 -0.003,0.11868 -8.7e-4,0.21819 0.002,0.0995 0.003,0.18081 0.001,0.18068 -0.001,-1.3e-4 -0.0656,-0.0283 -0.14305,-0.0625 z"
     id="path13" />
</svg>
